<svg xmlns="http://www.w3.org/2000/svg" width="180" height="180" viewBox="0 0 128 128" role="img" aria-label="Audi A3 financial readiness">
  <rect width="128" height="128" rx="24" fill="#f4f4f1"/>
  <path d="M22 73c6-16 19-25 38-25h14c15 0 25 7 32 21l8 3v16H17V76z" fill="#66716c" stroke="#151918" stroke-width="4" stroke-linejoin="round"/>
  <path d="M43 50h31c9 0 16 5 20 15H32c3-7 6-12 11-15z" fill="#eef0eb" stroke="#151918" stroke-width="3"/>
  <circle cx="39" cy="89" r="11" fill="#151918"/>
  <circle cx="39" cy="89" r="5" fill="#e8e4d8"/>
  <circle cx="94" cy="89" r="11" fill="#151918"/>
  <circle cx="94" cy="89" r="5" fill="#e8e4d8"/>
  <path d="M22 36h72" stroke="#9f8350" stroke-width="7" stroke-linecap="round"/>
  <path d="M80 24l17 12-17 12" fill="none" stroke="#9f8350" stroke-width="7" stroke-linecap="round" stroke-linejoin="round"/>
</svg>
