<svg xmlns="http://www.w3.org/2000/svg" width="128" height="128" viewBox="0 0 128 128" role="img" aria-label="Audi A3 financial readiness">
  <defs>
    <linearGradient id="body" x1="18" y1="48" x2="112" y2="86">
      <stop stop-color="#9ca5a0"/>
      <stop offset=".55" stop-color="#66716c"/>
      <stop offset="1" stop-color="#2c332f"/>
    </linearGradient>
    <linearGradient id="gold" x1="32" y1="34" x2="105" y2="94">
      <stop stop-color="#c9ad71"/>
      <stop offset="1" stop-color="#78603a"/>
    </linearGradient>
    <filter id="d" x="-30%" y="-30%" width="160%" height="160%" color-interpolation-filters="sRGB">
      <feDropShadow dx="0" dy="9" stdDeviation="7" flood-color="#101412" flood-opacity=".18"/>
    </filter>
  </defs>
  <g filter="url(#d)">
    <path d="M22 73c6-16 19-25 38-25h14c15 0 25 7 32 21l8 3v16H17V76z" fill="url(#body)" stroke="#151918" stroke-width="4" stroke-linejoin="round"/>
    <path d="M43 50h31c9 0 16 5 20 15H32c3-7 6-12 11-15z" fill="#eef0eb" stroke="#151918" stroke-width="3"/>
    <path d="M33 61h62" stroke="#151918" stroke-width="4" stroke-linecap="round" opacity=".35"/>
    <circle cx="39" cy="89" r="11" fill="#151918"/>
    <circle cx="39" cy="89" r="5" fill="#e8e4d8"/>
    <circle cx="94" cy="89" r="11" fill="#151918"/>
    <circle cx="94" cy="89" r="5" fill="#e8e4d8"/>
    <path d="M22 36h72" stroke="url(#gold)" stroke-width="7" stroke-linecap="round"/>
    <path d="M80 24l17 12-17 12" fill="none" stroke="url(#gold)" stroke-width="7" stroke-linecap="round" stroke-linejoin="round"/>
    <path d="M27 105h74" stroke="#151918" stroke-width="6" stroke-linecap="round" opacity=".18"/>
  </g>
</svg>
